<?xml version="1.0" encoding="utf-8" ?>
<svg xmlns="http://www.w3.org/2000/svg" xmlns:xlink="http://www.w3.org/1999/xlink" width="98" height="19">
	<path fill="#292A35" d="M9.5007305 0L12.631587 5.6550002L19 6.8699999L14.566813 11.595L15.372183 18L9.5007305 15.255L3.6292791 18L4.434649 11.595L0 6.8699999L6.368413 5.6550002L9.5007305 0ZM28.500731 0L31.631588 5.6550002L38 6.8699999L33.566814 11.595L34.372181 18L28.500731 15.255L22.62928 18L23.434649 11.595L19 6.8699999L25.368412 5.6550002L28.500731 0ZM49.500732 0L52.631588 5.6550002L59 6.8699999L54.566814 11.595L55.372181 18L49.500732 15.255L43.62928 18L44.43465 11.595L40 6.8699999L46.368412 5.6550002L49.500732 0M69.500732 0L72.631584 5.6550002L79 6.8699999L74.566811 11.595L75.372185 18L69.500732 15.255L63.62928 18L64.434647 11.595L60 6.8699999L66.368416 5.6550002L69.500732 0ZM88.500732 0L91.631584 5.6550002L98 6.8699999L93.566811 11.595L94.372185 18L88.500732 15.255L82.62928 18L83.434647 11.595L79 6.8699999L85.368416 5.6550002L88.500732 0Z" fill-rule="evenodd"/>
</svg>
